<svg xmlns="http://www.w3.org/2000/svg" viewBox="0 0 1920 1080" width="1920" height="1080">
  <defs>
    <linearGradient id="wallpaper" x1="0" y1="0" x2="1" y2="1">
      <stop offset="0%" stop-color="#1e1b4b"/>
      <stop offset="50%" stop-color="#0f172a"/>
      <stop offset="100%" stop-color="#020617"/>
    </linearGradient>
    <linearGradient id="topbar" x1="0" y1="0" x2="0" y2="1">
      <stop offset="0%" stop-color="#2a2a2e"/>
      <stop offset="100%" stop-color="#1e1e22"/>
    </linearGradient>
    <linearGradient id="titleBar" x1="0" y1="0" x2="0" y2="1">
      <stop offset="0%" stop-color="#3d3d42"/>
      <stop offset="100%" stop-color="#2a2a2e"/>
    </linearGradient>
    <linearGradient id="browserTitleBar" x1="0" y1="0" x2="0" y2="1">
      <stop offset="0%" stop-color="#f0f0f0"/>
      <stop offset="100%" stop-color="#e2e2e2"/>
    </linearGradient>
    <filter id="windowShadow" x="-5%" y="-5%" width="115%" height="115%">
      <feDropShadow dx="0" dy="8" stdDeviation="16" flood-color="#000" flood-opacity="0.5"/>
    </filter>
    <filter id="tabShadow" x="-5%" y="-5%" width="115%" height="115%">
      <feDropShadow dx="0" dy="1" stdDeviation="2" flood-color="#000" flood-opacity="0.3"/>
    </filter>
  </defs>

  <!-- Desktop Wallpaper -->
  <rect width="1920" height="1080" fill="url(#wallpaper)"/>

  <!-- Desktop Icons -->
  <g transform="translate(30, 80)" opacity="0.6">
    <rect width="56" height="56" rx="8" fill="rgba(255,255,255,0.06)"/>
    <rect x="14" y="14" width="28" height="28" rx="6" fill="rgba(255,255,255,0.12)"/>
    <text x="28" y="72" fill="rgba(255,255,255,0.7)" font-family="sans-serif" font-size="9" text-anchor="middle">Home</text>
  </g>
  <g transform="translate(30, 180)" opacity="0.6">
    <rect width="56" height="56" rx="8" fill="rgba(255,255,255,0.06)"/>
    <circle cx="28" cy="28" r="14" fill="rgba(255,255,255,0.12)"/>
    <text x="28" y="72" fill="rgba(255,255,255,0.7)" font-family="sans-serif" font-size="9" text-anchor="middle">Trash</text>
  </g>

  <!-- ===== TOP BAR ===== -->
  <rect width="1920" height="30" fill="url(#topbar)" opacity="0.95"/>
  <rect width="1920" height="1" y="30" fill="rgba(255,255,255,0.06)"/>

  <!-- Activities -->
  <rect x="8" y="4" width="88" height="22" rx="6" fill="rgba(255,255,255,0.08)"/>
  <rect x="20" y="12" width="12" height="6" rx="2" fill="rgba(255,255,255,0.5)"/>
  <text x="42" y="19" fill="#ddd" font-family="sans-serif" font-size="11" font-weight="500">Activities</text>

  <!-- Clock -->
  <text x="960" y="19" fill="#eee" font-family="sans-serif" font-size="11" font-weight="500">Fri Jul 17  2:41 PM</text>

  <!-- System Tray -->
  <g transform="translate(1820, 8)">
    <rect x="0" y="3" width="16" height="10" rx="2" fill="none" stroke="rgba(255,255,255,0.5)" stroke-width="1.2"/>
    <rect x="2" y="5" width="12" height="6" rx="1" fill="rgba(255,255,255,0.3)"/>
    <rect x="2" y="5" width="9" height="6" rx="1" fill="#0D9488"/>
    <rect x="6" y="1" width="4" height="4" rx="1" fill="rgba(255,255,255,0.4)"/>
  </g>
  <g transform="translate(1860, 9)">
    <path d="M0 8 Q6 0 12 8" fill="none" stroke="rgba(255,255,255,0.5)" stroke-width="2"/>
    <path d="M3 8 Q6 2 9 8" fill="none" stroke="rgba(255,255,255,0.3)" stroke-width="1.5"/>
  </g>
  <text x="1895" y="19" fill="#ccc" font-family="sans-serif" font-size="10">85%</text>

  <!-- ===== TERMINAL WINDOW ===== -->
  <g filter="url(#windowShadow)" transform="translate(45, 45)">
    <!-- Window body -->
    <rect width="780" height="500" rx="8" fill="#1a1a1a"/>
    <rect width="780" height="36" rx="8" fill="url(#titleBar)"/>
    <rect x="0" y="36" width="780" height="1" fill="rgba(255,255,255,0.06)"/>
    <!-- Clipping to round bottom corners properly -->
    <rect x="0" y="36" width="780" height="464" fill="#0d0d0d"/>

    <!-- Title bar dots -->
    <circle cx="16" cy="18" r="5" fill="#ff5f57"/>
    <circle cx="32" cy="18" r="5" fill="#ffbd2e"/>
    <circle cx="48" cy="18" r="5" fill="#28c840"/>

    <!-- Title -->
    <text x="390" y="23" fill="#bbb" font-family="sans-serif" font-size="12" text-anchor="middle">ollama run llama3.1</text>

    <!-- Terminal content -->
    <g transform="translate(16, 60)" font-family="'JetBrains Mono', 'Fira Code', 'Cascadia Code', monospace" font-size="13">
      <!-- Username@host -->
      <text x="0" y="0" fill="#0D9488">ash@arch</text>
      <text x="80" y="0" fill="#888">:</text>
      <text x="88" y="0" fill="#4ade80">~</text>
      <text x="104" y="0" fill="#888">$</text>
      <text x="116" y="0" fill="#ccc">ollama pull llama3.1</text>

      <!-- Output line 1 -->
      <text x="0" y="24" fill="#888">pulling manifest</text>
      <text x="0" y="44" fill="#888">pulling 8a0d2f7c...</text>
      <text x="200" y="44" fill="#4ade80">✓</text>
      <text x="0" y="64" fill="#888">pulling 6b4b1e4c...</text>
      <text x="200" y="64" fill="#4ade80">✓</text>
      <text x="0" y="84" fill="#888">verifying sha256 digest</text>
      <text x="0" y="104" fill="#4ade80">✓ success</text>

      <!-- New prompt -->
      <text x="0" y="140" fill="#0D9488">ash@arch</text>
      <text x="80" y="140" fill="#888">:</text>
      <text x="88" y="140" fill="#4ade80">~</text>
      <text x="104" y="140" fill="#888">$</text>
      <text x="116" y="140" fill="#ccc">ollama run llama3.1</text>

      <!-- AI response -->
      <text x="0" y="172" fill="#888">>>> send a message</text>
      <text x="0" y="200" fill="#888">Write a Python function to</text>
      <text x="0" y="220" fill="#888">find similar vectors in Qdrant</text>

      <!-- AI response in green -->
      <text x="0" y="256" fill="#4ade80">def find_similar(</text>
      <text x="0" y="276" fill="#4ade80">    client: QdrantClient,</text>
      <text x="0" y="296" fill="#4ade80">    collection: str,</text>
      <text x="0" y="316" fill="#4ade80">    vector: list[float],</text>
      <text x="0" y="336" fill="#4ade80">    limit: int = 10</text>
      <text x="0" y="356" fill="#4ade80">) -> list[ScoredPoint]:</text>
      <text x="0" y="388" fill="#4ade80">    return client.search(</text>
      <text x="0" y="408" fill="#4ade80">        collection_name=collection,</text>
      <text x="0" y="428" fill="#4ade80">        query_vector=vector,</text>
      <text x="0" y="448" fill="#4ade80">        limit=limit</text>
      <text x="0" y="468" fill="#4ade80">    )</text>
    </g>
  </g>

  <!-- ===== VS CODE WINDOW ===== -->
  <g filter="url(#windowShadow)" transform="translate(840, 35)">
    <!-- Window body -->
    <rect width="680" height="780" rx="8" fill="#1e1e1e"/>
    <rect width="680" height="36" rx="8" fill="#3c3c3c"/>
    <rect x="0" y="36" width="680" height="1" fill="rgba(255,255,255,0.08)"/>

    <!-- Title bar dots -->
    <circle cx="16" cy="18" r="5" fill="#ff5f57"/>
    <circle cx="32" cy="18" r="5" fill="#ffbd2e"/>
    <circle cx="48" cy="18" r="5" fill="#28c840"/>

    <!-- VS Code Tabs -->
    <g transform="translate(60, 0)">
      <rect x="0" y="0" width="140" height="36" fill="#2d2d2d"/>
      <rect x="1" y="36" width="138" height="1" fill="#1e1e1e"/>
      <path d="M12 28 L12 14 L18 14 L24 22 L18 22 Z" fill="#0D9488" opacity="0"/>
      <text x="22" y="23" fill="#ccc" font-family="sans-serif" font-size="11">vector_search.py</text>
      <rect x="136" y="12" width="8" height="12" rx="2" fill="rgba(255,255,255,0.2)"/>

      <rect x="140" y="0" width="120" height="36" fill="#1e1e1e"/>
      <text x="158" y="23" fill="#666" font-family="sans-serif" font-size="11">config.yaml</text>

      <rect x="260" y="0" width="100" height="36" fill="#1e1e1e"/>
      <text x="278" y="23" fill="#666" font-family="sans-serif" font-size="11">Dockerfile</text>
    </g>

    <!-- VS Code Menu bar -->
    <rect x="0" y="36" width="680" height="28" fill="#2d2d2d"/>
    <rect x="0" y="64" width="680" height="1" fill="rgba(255,255,255,0.06)"/>
    <text x="16" y="54" fill="#999" font-family="sans-serif" font-size="11">File</text>
    <text x="56" y="54" fill="#999" font-family="sans-serif" font-size="11">Edit</text>
    <text x="96" y="54" fill="#999" font-family="sans-serif" font-size="11">Selection</text>
    <text x="168" y="54" fill="#999" font-family="sans-serif" font-size="11">View</text>
    <text x="216" y="54" fill="#999" font-family="sans-serif" font-size="11">Go</text>
    <text x="248" y="54" fill="#999" font-family="sans-serif" font-size="11">Run</text>

    <!-- Activity Bar (left icon strip) -->
    <rect x="0" y="64" width="48" height="716" fill="#333"/>
    <g transform="translate(0, 64)">
      <rect x="0" y="8" width="48" height="48" fill="rgba(255,255,255,0.06)"/>
      <rect x="4" y="16" width="40" height="32" rx="4" fill="none" stroke="#0D9488" stroke-width="1.5"/>
      <rect x="12" y="24" width="24" height="16" rx="2" fill="#0D9488" opacity="0.4"/>

      <rect x="0" y="60" width="48" height="48">
        <animate attributeName="opacity" values="0.3;0.3" dur="1s"/>
      </rect>
      <rect x="12" y="76" width="24" height="20" rx="2" fill="none" stroke="rgba(255,255,255,0.3)" stroke-width="1.5"/>
      <path d="M12 80 L24 80" stroke="rgba(255,255,255,0.3)" stroke-width="1.5"/>

      <rect x="12" y="128" width="24" height="24" rx="2" fill="none" stroke="rgba(255,255,255,0.3)" stroke-width="1.5"/>
      <circle cx="24" cy="140" r="6" fill="rgba(255,255,255,0.3)"/>

      <rect x="12" y="192" width="24" height="24" rx="2" fill="none" stroke="rgba(255,255,255,0.3)" stroke-width="1.5"/>
      <path d="M16 204 L20 200 L24 204 L28 200" fill="none" stroke="rgba(255,255,255,0.3)" stroke-width="1.5"/>
    </g>

    <!-- Sidebar -->
    <rect x="48" y="64" width="200" height="716" fill="#252526"/>
    <rect x="48" y="64" width="1" height="716" fill="rgba(255,255,255,0.06)"/>

    <!-- Sidebar header -->
    <rect x="48" y="64" width="200" height="32" fill="#252526"/>
    <text x="60" y="85" fill="#bbb" font-family="sans-serif" font-size="10" font-weight="600" letter-spacing="0.5">EXPLORER</text>

    <!-- File tree -->
    <g transform="translate(60, 110)" font-family="sans-serif" font-size="11" fill="#999">
      <!-- Root folder -->
      <path d="M0 0 L6 6 L0 12" fill="none" stroke="rgba(255,255,255,0.3)" stroke-width="1"/>
      <rect x="10" y="1" width="12" height="10" rx="1" fill="none" stroke="rgba(255,255,255,0.4)" stroke-width="1.2"/>
      <text x="28" y="10" fill="#ccc">ash-vector-search</text>
      <rect x="0" y="10" width="200" height="1" fill="rgba(255,255,255,0.03)"/>

      <!-- src/ -->
      <path d="M16 24 L22 30 L16 36" fill="none" stroke="rgba(255,255,255,0.3)" stroke-width="1"/>
      <path d="M10 30 L16 30" stroke="rgba(255,255,255,0.3)" stroke-width="1"/>
      <circle cx="26" cy="30" r="5" fill="rgba(255,255,255,0.15)"/>
      <text x="36" y="33" fill="#ccc">src</text>

      <!-- main.py -->
      <g transform="translate(20, 0)">
        <path d="M10 44 L16 50 L10 56" fill="none" stroke="rgba(255,255,255,0.2)" stroke-width="1"/>
        <circle cx="26" cy="50" r="5" fill="#0D9488" opacity="0.5"/>
        <text x="36" y="53" fill="#ccc">main.py</text>
      </g>

      <!-- vector_search.py (selected) -->
      <g transform="translate(20, 56)">
        <rect x="-8" y="-4" width="188" height="22" rx="2" fill="#37373d"/>
        <path d="M10 4 L16 10 L10 16" fill="none" stroke="rgba(255,255,255,0.2)" stroke-width="1"/>
        <circle cx="26" cy="10" r="5" fill="#0D9488" opacity="0.7"/>
        <text x="36" y="13" fill="#ccc">vector_search.py</text>
      </g>

      <!-- config.yaml -->
      <g transform="translate(20, 82)">
        <path d="M10 4 L16 10 L10 16" fill="none" stroke="rgba(255,255,255,0.2)" stroke-width="1"/>
        <circle cx="26" cy="10" r="5" fill="rgba(255,255,255,0.15)"/>
        <text x="36" y="13" fill="#999">config.yaml</text>
      </g>

      <!-- Dockerfile -->
      <g transform="translate(20, 104)">
        <path d="M10 4 L16 10 L10 16" fill="none" stroke="rgba(255,255,255,0.2)" stroke-width="1"/>
        <circle cx="26" cy="10" r="5" fill="rgba(255,255,255,0.15)"/>
        <text x="36" y="13" fill="#999">Dockerfile</text>
      </g>

      <!-- README.md -->
      <g transform="translate(20, 126)">
        <path d="M10 4 L16 10 L10 16" fill="none" stroke="rgba(255,255,255,0.2)" stroke-width="1"/>
        <rect x="22" y="4" width="8" height="12" rx="2" fill="none" stroke="rgba(255,255,255,0.3)" stroke-width="1.2"/>
        <text x="36" y="13" fill="#999">README.md</text>
      </g>
    </g>

    <!-- Editor content -->
    <g transform="translate(248, 92)" font-family="'JetBrains Mono', 'Fira Code', monospace" font-size="12">
      <!-- Line numbers -->
      <g fill="#484848">
        <text x="0" y="14" text-anchor="end">1</text>
        <text x="0" y="31" text-anchor="end">2</text>
        <text x="0" y="48" text-anchor="end">3</text>
        <text x="0" y="65" text-anchor="end">4</text>
        <text x="0" y="82" text-anchor="end">5</text>
        <text x="0" y="99" text-anchor="end">6</text>
        <text x="0" y="116" text-anchor="end">7</text>
        <text x="0" y="133" text-anchor="end">8</text>
        <text x="0" y="150" text-anchor="end">9</text>
        <text x="0" y="167" text-anchor="end">10</text>
        <text x="0" y="184" text-anchor="end">11</text>
        <text x="0" y="201" text-anchor="end">12</text>
        <text x="0" y="218" text-anchor="end">13</text>
        <text x="0" y="235" text-anchor="end">14</text>
        <text x="0" y="252" text-anchor="end">15</text>
        <text x="0" y="269" text-anchor="end">16</text>
        <text x="0" y="286" text-anchor="end">17</text>
        <text x="0" y="303" text-anchor="end">18</text>
        <text x="0" y="320" text-anchor="end">19</text>
        <text x="0" y="337" text-anchor="end">20</text>
      </g>
      <rect x="28" y="0" width="380" height="17" fill="#2d2d2d" opacity="0.5"/>

      <!-- Code -->
      <g transform="translate(32, 0)">
        <!-- import statements (blue/cyan) -->
        <text x="0" y="14" fill="#569cd6">import</text>
        <text x="48" y="14" fill="#9cdcfe">os</text>
        <text x="0" y="31" fill="#569cd6">from</text>
        <text x="32" y="31" fill="#9cdcfe">qdrant_client</text>
        <text x="132" y="31" fill="#569cd6">import</text>
        <text x="172" y="31" fill="#9cdcfe">QdrantClient</text>

        <text x="0" y="65" fill="#569cd6">from</text>
        <text x="32" y="65" fill="#9cdcfe">qdrant_client.http.models</text>
        <text x="252" y="65" fill="#569cd6">import</text>
        <text x="292" y="65" fill="#9cdcfe">VectorParams, Distance</text>

        <!-- Empty line 4 -->
        <text x="0" y="99" fill="#999"># Initialize Qdrant client</text>

        <!-- Variable declaration -->
        <text x="0" y="116" fill="#569cd6">def</text>
        <text x="28" y="116" fill="#dcdcaa">setup_collection</text>
        <text x="148" y="116" fill="#d4d4d4">():</text>

        <!-- Indented body -->
        <text x="20" y="133" fill="#9cdcfe">client</text>
        <text x="72" y="133" fill="#d4d4d4">=</text>
        <text x="84" y="133" fill="#9cdcfe">QdrantClient</text>
        <text x="168" y="133" fill="#d4d4d4">(</text>
        <text x="176" y="133" fill="#ce9178">"localhost"</text>
        <text x="232" y="133" fill="#d4d4d4">,</text>
        <text x="240" y="133" fill="#dcdcaa">port</text>
        <text x="264" y="133" fill="#d4d4d4">=</text>
        <text x="276" y="133" fill="#b5cea8">6333</text>
        <text x="296" y="133" fill="#d4d4d4">)</text>

        <text x="20" y="150" fill="#9cdcfe">client</text>
        <text x="72" y="150" fill="#dcdcaa">recreate_collection</text>
        <text x="200" y="150" fill="#d4d4d4">(</text>
        <text x="208" y="150" fill="#dcdcaa">collection_name</text>
        <text x="332" y="150" fill="#d4d4d4">=</text>
        <text x="344" y="150" fill="#ce9178">"documents"</text>
        <text x="420" y="150" fill="#d4d4d4">,</text>

        <text x="20" y="167" fill="#dcdcaa">vectors_config</text>
        <text x="140" y="167" fill="#d4d4d4">=</text>
        <text x="152" y="167" fill="#9cdcfe">VectorParams</text>
        <text x="236" y="167" fill="#d4d4d4">(</text>
        <text x="244" y="167" fill="#dcdcaa">size</text>
        <text x="268" y="167" fill="#d4d4d4">=</text>
        <text x="280" y="167" fill="#b5cea8">768</text>
        <text x="304" y="167" fill="#d4d4d4">,</text>
        <text x="312" y="167" fill="#dcdcaa">distance</text>
        <text x="368" y="167" fill="#d4d4d4">=</text>
        <text x="380" y="167" fill="#9cdcfe">Distance</text>
        <text x="424" y="167" fill="#d4d4d4">.</text>

        <text x="20" y="184" fill="#9cdcfe">COSINE</text>
        <text x="68" y="184" fill="#d4d4d4">)</text>
        <text x="76" y="184" fill="#d4d4d4">)</text>

        <!-- Empty line -->
        <text x="0" y="218" fill="#569cd6">def</text>
        <text x="28" y="218" fill="#dcdcaa">search_vectors</text>
        <text x="132" y="218" fill="#d4d4d4">(</text>
        <text x="140" y="218" fill="#dcdcaa">query</text>
        <text x="180" y="218" fill="#d4d4d4">:</text>
        <text x="192" y="218" fill="#9cdcfe">list</text>
        <text x="208" y="218" fill="#d4d4d4">[</text>
        <text x="216" y="218" fill="#9cdcfe">float</text>
        <text x="244" y="218" fill="#d4d4d4">]):</text>

        <text x="20" y="235" fill="#dcdcaa">results</text>
        <text x="80" y="235" fill="#d4d4d4">=</text>
        <text x="92" y="235" fill="#9cdcfe">client</text>
        <text x="132" y="235" fill="#d4d4d4">.</text>
        <text x="140" y="235" fill="#dcdcaa">search</text>
        <text x="180" y="235" fill="#d4d4d4">(</text>

        <text x="40" y="252" fill="#dcdcaa">collection_name</text>
        <text x="164" y="252" fill="#d4d4d4">=</text>
        <text x="176" y="252" fill="#ce9178">"documents"</text>
        <text x="252" y="252" fill="#d4d4d4">,</text>

        <text x="40" y="269" fill="#dcdcaa">query_vector</text>
        <text x="140" y="269" fill="#d4d4d4">=</text>
        <text x="152" y="269" fill="#dcdcaa">query</text>
        <text x="192" y="269" fill="#d4d4d4">,</text>

        <text x="40" y="286" fill="#dcdcaa">limit</text>
        <text x="72" y="286" fill="#d4d4d4">=</text>
        <text x="84" y="286" fill="#b5cea8">10</text>
        <text x="100" y="286" fill="#d4d4d4">)</text>

        <text x="20" y="303" fill="#569cd6">return</text>
        <text x="64" y="303" fill="#dcdcaa">results</text>
      </g>
    </g>

    <!-- Bottom status bar -->
    <rect x="48" y="748" width="632" height="22" fill="#0D9488"/>
    <rect x="0" y="768" width="680" height="12" fill="#1e1e1e"/>
    <text x="60" y="762" fill="#fff" font-family="sans-serif" font-size="10">main</text>
    <text x="100" y="762" fill="rgba(255,255,255,0.7)" font-family="sans-serif" font-size="10">Ln 20, Col 12</text>
    <text x="180" y="762" fill="rgba(255,255,255,0.7)" font-family="sans-serif" font-size="10">Spaces: 4</text>
    <text x="260" y="762" fill="rgba(255,255,255,0.7)" font-family="sans-serif" font-size="10">UTF-8</text>
    <text x="320" y="762" fill="rgba(255,255,255,0.7)" font-family="sans-serif" font-size="10">Python</text>
    <!-- Right side status -->
    <circle cx="628" cy="759" r="4" fill="#4ade80"/>
    <text x="640" y="762" fill="rgba(255,255,255,0.7)" font-family="sans-serif" font-size="10">Prettier</text>
  </g>

  <!-- ===== BROWSER WINDOW ===== -->
  <g filter="url(#windowShadow)" transform="translate(280, 560)">
    <!-- Window body -->
    <rect width="840" height="470" rx="8" fill="#fff"/>
    <rect width="840" height="44" rx="8" fill="url(#browserTitleBar)"/>
    <rect x="0" y="44" width="840" height="1" fill="#ccc"/>

    <!-- Browser title bar dots -->
    <circle cx="18" cy="22" r="5" fill="#ff5f57"/>
    <circle cx="34" cy="22" r="5" fill="#ffbd2e"/>
    <circle cx="50" cy="22" r="5" fill="#28c840"/>

    <!-- URL bar -->
    <rect x="100" y="13" width="640" height="22" rx="11" fill="#e8e8e8"/>
    <!-- Lock icon -->
    <rect x="118" y="21" width="7" height="9" rx="1.5" fill="none" stroke="#0D9488" stroke-width="1.2"/>
    <text x="136" y="28" fill="#555" font-family="sans-serif" font-size="11">localhost:6333</text>
    <text x="246" y="28" fill="#999" font-family="sans-serif" font-size="11">/dashboard</text>

    <!-- Bookmark bar -->
    <rect x="0" y="44" width="840" height="2" fill="#0D9488"/>

    <!-- Page content - Qdrant-like dark dashboard -->
    <rect x="0" y="46" width="840" height="424" fill="#0f172a"/>

    <!-- Dashboard sidebar -->
    <rect x="0" y="46" width="200" height="424" fill="#1e293b"/>
    <!-- Logo area -->
    <text x="20" y="82" fill="#0D9488" font-family="sans-serif" font-size="18" font-weight="700">Qdrant</text>
    <text x="92" y="82" fill="#94a3b8" font-family="sans-serif" font-size="10" font-weight="500">v1.13</text>

    <!-- Sidebar nav items -->
    <g transform="translate(16, 100)" font-family="sans-serif" font-size="13">
      <rect x="-8" y="0" width="180" height="28" rx="4" fill="rgba(13, 148, 136, 0.15)"/>
      <rect x="-8" y="32" width="180" height="28" rx="4" fill="transparent"/>
      <rect x="-8" y="64" width="180" height="28" rx="4" fill="transparent"/>
      <rect x="-8" y="96" width="180" height="28" rx="4" fill="transparent"/>
      <rect x="-8" y="128" width="180" height="28" rx="4" fill="transparent"/>

      <text x="4" y="19" fill="#0D9488" font-weight="500">Dashboard</text>
      <text x="4" y="51" fill="#94a3b8">Collections</text>
      <text x="4" y="83" fill="#94a3b8">Search</text>
      <text x="4" y="115" fill="#94a3b8">Snapshots</text>
      <text x="4" y="147" fill="#94a3b8">Settings</text>
    </g>

    <!-- Divider -->
    <rect x="16" y="272" width="168" height="1" fill="rgba(255,255,255,0.06)"/>

    <!-- API info -->
    <g transform="translate(16, 290)" font-family="sans-serif" font-size="11">
      <text x="0" y="0" fill="#64748b" font-size="10" font-weight="600">CLUSTER INFO</text>
      <text x="0" y="22" fill="#cbd5e1">ash-qdrant-node-1</text>
      <text x="0" y="38" fill="#64748b">3 replicas · 10 shards</text>
    </g>

    <!-- Main content area -->
    <g transform="translate(220, 70)">
      <!-- Header -->
      <text x="0" y="0" fill="#f1f5f9" font-family="sans-serif" font-size="22" font-weight="600">Dashboard</text>
      <text x="0" y="22" fill="#64748b" font-family="sans-serif" font-size="12">Overview of your vector database</text>

      <!-- Stats cards -->
      <g transform="translate(0, 50)">
        <rect x="0" y="0" width="170" height="80" rx="8" fill="#1e293b" stroke="rgba(255,255,255,0.06)" stroke-width="1"/>
        <text x="16" y="24" fill="#94a3b8" font-family="sans-serif" font-size="11">Total Collections</text>
        <text x="16" y="58" fill="#f1f5f9" font-family="sans-serif" font-size="28" font-weight="700">4</text>
        <path d="M140 40 L148 32 L156 40" fill="none" stroke="#4ade80" stroke-width="2"/>
        <text x="158" y="52" fill="#4ade80" font-family="sans-serif" font-size="10">+2</text>

        <rect x="188" y="0" width="170" height="80" rx="8" fill="#1e293b" stroke="rgba(255,255,255,0.06)" stroke-width="1"/>
        <text x="204" y="24" fill="#94a3b8" font-family="sans-serif" font-size="11">Total Vectors</text>
        <text x="204" y="58" fill="#f1f5f9" font-family="sans-serif" font-size="28" font-weight="700">1.2M</text>
        <rect x="330" y="42" width="12" height="12" rx="2" fill="#0D9488"/>

        <rect x="376" y="0" width="170" height="80" rx="8" fill="#1e293b" stroke="rgba(255,255,255,0.06)" stroke-width="1"/>
        <text x="392" y="24" fill="#94a3b8" font-family="sans-serif" font-size="11">Storage Used</text>
        <text x="392" y="58" fill="#f1f5f9" font-family="sans-serif" font-size="28" font-weight="700">2.4 GB</text>
        <rect x="518" y="42" width="12" height="12" rx="2" fill="#0D9488"/>

        <rect x="564" y="0" width="170" height="80" rx="8" fill="#1e293b" stroke="rgba(255,255,255,0.06)" stroke-width="1"/>
        <text x="580" y="24" fill="#94a3b8" font-family="sans-serif" font-size="11">Search Latency</text>
        <text x="580" y="58" fill="#f1f5f9" font-family="sans-serif" font-size="28" font-weight="700">12ms</text>
        <path d="M700 40 L708 32 L716 40" fill="none" stroke="#4ade80" stroke-width="2"/>
      </g>

      <!-- Collections table -->
      <g transform="translate(0, 160)">
        <text x="0" y="0" fill="#f1f5f9" font-family="sans-serif" font-size="15" font-weight="600">Collections</text>

        <g transform="translate(0, 20)">
          <!-- Table header -->
          <rect x="0" y="0" width="580" height="32" rx="4" fill="#1e293b"/>
          <text x="16" y="21" fill="#94a3b8" font-family="sans-serif" font-size="11" font-weight="600">NAME</text>
          <text x="140" y="21" fill="#94a3b8" font-family="sans-serif" font-size="11" font-weight="600">VECTORS</text>
          <text x="260" y="21" fill="#94a3b8" font-family="sans-serif" font-size="11" font-weight="600">DIMENSION</text>
          <text x="376" y="21" fill="#94a3b8" font-family="sans-serif" font-size="11" font-weight="600">DISTANCE</text>
          <text x="500" y="21" fill="#94a3b8" font-family="sans-serif" font-size="11" font-weight="600">STATUS</text>

          <!-- Row 1 -->
          <rect x="0" y="36" width="580" height="36" rx="4" fill="rgba(255,255,255,0.02)"/>
          <circle cx="24" cy="54" r="8" fill="#0D9488" opacity="0.3"/>
          <text x="16" y="58" fill="#e2e8f0" font-family="sans-serif" font-size="12">documents</text>
          <text x="140" y="58" fill="#cbd5e1" font-family="sans-serif" font-size="12">845,293</text>
          <text x="260" y="58" fill="#cbd5e1" font-family="sans-serif" font-size="12">768</text>
          <text x="376" y="58" fill="#cbd5e1" font-family="sans-serif" font-size="12">Cosine</text>
          <circle cx="508" cy="54" r="4" fill="#4ade80"/>
          <text x="520" y="58" fill="#4ade80" font-family="sans-serif" font-size="11">Green</text>

          <!-- Row 2 -->
          <rect x="0" y="76" width="580" height="36" rx="4" fill="rgba(255,255,255,0.02)"/>
          <circle cx="24" cy="94" r="8" fill="#6366f1" opacity="0.3"/>
          <text x="16" y="98" fill="#e2e8f0" font-family="sans-serif" font-size="12">embeddings</text>
          <text x="140" y="98" fill="#cbd5e1" font-family="sans-serif" font-size="12">321,045</text>
          <text x="260" y="98" fill="#cbd5e1" font-family="sans-serif" font-size="12">1536</text>
          <text x="376" y="98" fill="#cbd5e1" font-family="sans-serif" font-size="12">Dot</text>
          <circle cx="508" cy="94" r="4" fill="#4ade80"/>
          <text x="520" y="98" fill="#4ade80" font-family="sans-serif" font-size="11">Green</text>

          <!-- Row 3 -->
          <rect x="0" y="116" width="580" height="36" rx="4" fill="rgba(255,255,255,0.02)"/>
          <circle cx="24" cy="134" r="8" fill="#f59e0b" opacity="0.3"/>
          <text x="16" y="138" fill="#e2e8f0" font-family="sans-serif" font-size="12">images</text>
          <text x="140" y="138" fill="#cbd5e1" font-family="sans-serif" font-size="12">52,801</text>
          <text x="260" y="138" fill="#cbd5e1" font-family="sans-serif" font-size="12">512</text>
          <text x="376" y="138" fill="#cbd5e1" font-family="sans-serif" font-size="12">Euclid</text>
          <circle cx="508" cy="134" r="4" fill="#fbbf24"/>
          <text x="520" y="138" fill="#fbbf24" font-family="sans-serif" font-size="11">Yellow</text>
        </g>
      </g>
    </g>

    <!-- Qdrant version badge -->
    <rect x="620" y="460" width="80" height="20" rx="4" fill="#0D9488" opacity="0.15"/>
    <text x="660" y="474" fill="#0D9488" font-family="sans-serif" font-size="9" text-anchor="middle">Qdrant v1.13.0</text>
  </g>
</svg>